<svg xmlns="http://www.w3.org/2000/svg" viewBox="0 0 1400 750" style="background: #0d1117; font-family: -apple-system, BlinkMacSystemFont, 'Segoe UI', Roboto, sans-serif;">
  <defs>
    <linearGradient id="bgGrad" x1="0%" y1="0%" x2="100%" y2="100%">
      <stop offset="0%" style="stop-color:#161b22"/>
      <stop offset="100%" style="stop-color:#0d1117"/>
    </linearGradient>
    <linearGradient id="featureGrad" x1="0%" y1="0%" x2="100%" y2="0%">
      <stop offset="0%" style="stop-color:#3b82f6"/>
      <stop offset="100%" style="stop-color:#06b6d4"/>
    </linearGradient>

    <filter id="glow2">
      <feGaussianBlur stdDeviation="1.5" result="coloredBlur"/>
      <feMerge>
        <feMergeNode in="coloredBlur"/>
        <feMergeNode in="SourceGraphic"/>
      </feMerge>
    </filter>
  </defs>

  <rect width="1400" height="750" fill="url(#bgGrad)"/>

  <!-- Title -->
  <text x="700" y="40" text-anchor="middle" fill="#f0f6fc" font-size="24" font-weight="bold">Claude Code Feature Evolution Matrix</text>
  <text x="700" y="65" text-anchor="middle" fill="#8b949e" font-size="12">Visualizing the progression of major capabilities across versions</text>

  <!-- Version columns header -->
  <g font-size="11" font-weight="bold" text-anchor="middle">
    <text x="280" y="100" fill="#f59e0b">0.2.x Beta</text>
    <text x="420" y="100" fill="#10b981">0.2.93+</text>
    <text x="560" y="100" fill="#3b82f6">1.0.0 GA</text>
    <text x="700" y="100" fill="#8b5cf6">1.0.60+</text>
    <text x="840" y="100" fill="#ec4899">2.0.0</text>
    <text x="980" y="100" fill="#f97316">2.0.12+</text>
    <text x="1120" y="100" fill="#ef4444">2.1.x</text>
  </g>

  <!-- Vertical grid lines -->
  <g stroke="#21262d" stroke-width="1">
    <line x1="200" y1="110" x2="200" y2="700"/>
    <line x1="280" y1="110" x2="280" y2="700"/>
    <line x1="420" y1="110" x2="420" y2="700"/>
    <line x1="560" y1="110" x2="560" y2="700"/>
    <line x1="700" y1="110" x2="700" y2="700"/>
    <line x1="840" y1="110" x2="840" y2="700"/>
    <line x1="980" y1="110" x2="980" y2="700"/>
    <line x1="1120" y1="110" x2="1120" y2="700"/>
    <line x1="1260" y1="110" x2="1260" y2="700"/>
  </g>

  <!-- Horizontal grid lines -->
  <g stroke="#21262d" stroke-width="1">
    <line x1="200" y1="110" x2="1260" y2="110"/>
    <line x1="200" y1="145" x2="1260" y2="145"/>
    <line x1="200" y1="190" x2="1260" y2="190"/>
    <line x1="200" y1="235" x2="1260" y2="235"/>
    <line x1="200" y1="280" x2="1260" y2="280"/>
    <line x1="200" y1="325" x2="1260" y2="325"/>
    <line x1="200" y1="370" x2="1260" y2="370"/>
    <line x1="200" y1="415" x2="1260" y2="415"/>
    <line x1="200" y1="460" x2="1260" y2="460"/>
    <line x1="200" y1="505" x2="1260" y2="505"/>
    <line x1="200" y1="550" x2="1260" y2="550"/>
    <line x1="200" y1="595" x2="1260" y2="595"/>
    <line x1="200" y1="640" x2="1260" y2="640"/>
    <line x1="200" y1="685" x2="1260" y2="685"/>
  </g>

  <!-- Category labels -->
  <g font-size="11" font-weight="bold" fill="#e5e7eb">
    <text x="195" y="135" text-anchor="end">Core Tools</text>
    <text x="195" y="175" text-anchor="end">MCP Integration</text>
    <text x="195" y="220" text-anchor="end">Extensibility</text>
    <text x="195" y="265" text-anchor="end">Agents/AI</text>
    <text x="195" y="310" text-anchor="end">Developer UX</text>
    <text x="195" y="355" text-anchor="end">Session Management</text>
    <text x="195" y="400" text-anchor="end">Platforms</text>
    <text x="195" y="445" text-anchor="end">Models</text>
    <text x="195" y="490" text-anchor="end">Permissions/Security</text>
    <text x="195" y="535" text-anchor="end">Input/Output</text>
    <text x="195" y="580" text-anchor="end">Automation</text>
    <text x="195" y="625" text-anchor="end">Context</text>
    <text x="195" y="670" text-anchor="end">Collaboration</text>
  </g>

  <!-- Feature markers -->
  <g font-size="9" text-anchor="middle">

    <!-- Core Tools row -->
    <rect x="230" y="120" width="100" height="18" rx="3" fill="#f59e0b" opacity="0.3"/>
    <text x="280" y="132" fill="#fbbf24">Bash, Read, Edit</text>

    <rect x="480" y="120" width="100" height="18" rx="3" fill="#3b82f6" opacity="0.3"/>
    <text x="530" y="132" fill="#60a5fa">LSP Tool</text>

    <rect x="760" y="120" width="100" height="18" rx="3" fill="#ec4899" opacity="0.3"/>
    <text x="810" y="132" fill="#f472b6">PDF Support</text>

    <rect x="1040" y="120" width="100" height="18" rx="3" fill="#ef4444" opacity="0.3"/>
    <text x="1090" y="132" fill="#f87171">Page-based PDF</text>

    <!-- MCP row -->
    <rect x="230" y="155" width="100" height="27" rx="3" fill="#f59e0b" opacity="0.3"/>
    <text x="280" y="167" fill="#fbbf24">MCP Protocol</text>
    <text x="280" y="179" fill="#fbbf24" font-size="8">(0.2.32)</text>

    <rect x="370" y="155" width="100" height="27" rx="3" fill="#10b981" opacity="0.3"/>
    <text x="420" y="167" fill="#34d399">SSE Transport</text>
    <text x="420" y="179" fill="#34d399" font-size="8">(0.2.54)</text>

    <rect x="760" y="155" width="100" height="27" rx="3" fill="#ec4899" opacity="0.3"/>
    <text x="810" y="167" fill="#f472b6">OAuth + SSE</text>
    <text x="810" y="179" fill="#f472b6" font-size="8">(2.0.27)</text>

    <rect x="900" y="155" width="100" height="27" rx="3" fill="#f97316" opacity="0.3"/>
    <text x="950" y="167" fill="#fb923c">MCP Resources</text>
    <text x="950" y="179" fill="#fb923c" font-size="8">(2.0.30)</text>

    <!-- Extensibility row -->
    <rect x="230" y="200" width="100" height="27" rx="3" fill="#f59e0b" opacity="0.3"/>
    <text x="280" y="212" fill="#fbbf24">Slash Commands</text>
    <text x="280" y="224" fill="#fbbf24" font-size="8">(0.2.31)</text>

    <rect x="650" y="200" width="100" height="27" rx="3" fill="#8b5cf6" opacity="0.3"/>
    <text x="700" y="212" fill="#a78bfa">Hooks System</text>
    <text x="700" y="224" fill="#a78bfa" font-size="8">(1.0.38)</text>

    <rect x="760" y="200" width="100" height="27" rx="3" fill="#ec4899" opacity="0.3"/>
    <text x="810" y="212" fill="#f472b6">Plugins</text>
    <text x="810" y="224" fill="#f472b6" font-size="8">(2.0.12)</text>

    <rect x="1040" y="200" width="100" height="27" rx="3" fill="#ef4444" opacity="0.3"/>
    <text x="1090" y="212" fill="#f87171">Skills</text>
    <text x="1090" y="224" fill="#f87171" font-size="8">(2.1.0)</text>

    <!-- Agents/AI row -->
    <rect x="650" y="245" width="100" height="27" rx="3" fill="#8b5cf6" opacity="0.3"/>
    <text x="700" y="257" fill="#a78bfa">Custom Agents</text>
    <text x="700" y="269" fill="#a78bfa" font-size="8">(1.0.60)</text>

    <rect x="760" y="245" width="100" height="27" rx="3" fill="#ec4899" opacity="0.3"/>
    <text x="810" y="257" fill="#f472b6">Subagents</text>
    <text x="810" y="269" fill="#f472b6" font-size="8">(1.0.74)</text>

    <rect x="1040" y="245" width="100" height="27" rx="3" fill="#ef4444" opacity="0.3"/>
    <text x="1090" y="257" fill="#f87171">Agent Teams</text>
    <text x="1090" y="269" fill="#f87171" font-size="8">(2.1.32)</text>

    <rect x="1180" y="245" width="70" height="27" rx="3" fill="#ef4444" opacity="0.3"/>
    <text x="1215" y="257" fill="#f87171">Auto-Memory</text>

    <!-- Developer UX row -->
    <rect x="230" y="290" width="100" height="27" rx="3" fill="#f59e0b" opacity="0.3"/>
    <text x="280" y="302" fill="#fbbf24">Vim Bindings</text>
    <text x="280" y="314" fill="#fbbf24" font-size="8">(0.2.34)</text>

    <rect x="650" y="290" width="100" height="27" rx="3" fill="#8b5cf6" opacity="0.3"/>
    <text x="700" y="302" fill="#a78bfa">Thinking Mode</text>
    <text x="700" y="314" fill="#a78bfa" font-size="8">(0.2.44)</text>

    <rect x="760" y="290" width="100" height="27" rx="3" fill="#ec4899" opacity="0.3"/>
    <text x="810" y="302" fill="#f472b6">/rewind</text>
    <text x="810" y="314" fill="#f472b6" font-size="8">(2.0.0)</text>

    <rect x="1180" y="290" width="70" height="27" rx="3" fill="#ef4444" opacity="0.3"/>
    <text x="1215" y="302" fill="#f87171">Keybindings</text>

    <!-- Session Management row -->
    <rect x="370" y="335" width="100" height="27" rx="3" fill="#10b981" opacity="0.3"/>
    <text x="420" y="347" fill="#34d399">--resume/--continue</text>
    <text x="420" y="359" fill="#34d399" font-size="8">(0.2.93)</text>

    <rect x="900" y="335" width="100" height="27" rx="3" fill="#f97316" opacity="0.3"/>
    <text x="950" y="347" fill="#fb923c">Named Sessions</text>
    <text x="950" y="359" fill="#fb923c" font-size="8">(2.0.64)</text>

    <rect x="1040" y="335" width="100" height="27" rx="3" fill="#ef4444" opacity="0.3"/>
    <text x="1090" y="347" fill="#f87171">Teleport</text>
    <text x="1090" y="359" fill="#f87171" font-size="8">(2.1.0)</text>

    <!-- Platforms row -->
    <rect x="760" y="380" width="100" height="27" rx="3" fill="#ec4899" opacity="0.3"/>
    <text x="810" y="392" fill="#f472b6">VS Code Extension</text>
    <text x="810" y="404" fill="#f472b6" font-size="8">(2.0.0)</text>

    <rect x="900" y="380" width="100" height="27" rx="3" fill="#f97316" opacity="0.3"/>
    <text x="950" y="392" fill="#fb923c">Desktop App</text>
    <text x="950" y="404" fill="#fb923c" font-size="8">(2.0.51)</text>

    <rect x="1040" y="380" width="100" height="27" rx="3" fill="#ef4444" opacity="0.3"/>
    <text x="1090" y="392" fill="#f87171">Chrome Extension</text>
    <text x="1090" y="404" fill="#f87171" font-size="8">(2.0.72)</text>

    <!-- Models row -->
    <rect x="650" y="425" width="100" height="27" rx="3" fill="#8b5cf6" opacity="0.3"/>
    <text x="700" y="437" fill="#a78bfa">Sonnet 4 & Opus 4</text>
    <text x="700" y="449" fill="#a78bfa" font-size="8">(1.0.0)</text>

    <rect x="900" y="425" width="100" height="27" rx="3" fill="#f97316" opacity="0.3"/>
    <text x="950" y="437" fill="#fb923c">Opus 4.5</text>
    <text x="950" y="449" fill="#fb923c" font-size="8">(2.0.51)</text>

    <rect x="1040" y="425" width="100" height="27" rx="3" fill="#ef4444" opacity="0.3"/>
    <text x="1090" y="437" fill="#f87171">Opus 4.6</text>
    <text x="1090" y="449" fill="#f87171" font-size="8">(2.1.32)</text>

    <rect x="1180" y="425" width="70" height="27" rx="3" fill="#ef4444" opacity="0.3"/>
    <text x="1215" y="437" fill="#f87171" font-size="8">Fast Mode</text>
    <text x="1215" y="449" fill="#f87171" font-size="8">(2.1.36)</text>

    <!-- Permissions/Security row -->
    <rect x="230" y="470" width="100" height="27" rx="3" fill="#f59e0b" opacity="0.3"/>
    <text x="280" y="482" fill="#fbbf24">/approved-tools</text>
    <text x="280" y="494" fill="#fbbf24" font-size="8">(0.2.26)</text>

    <rect x="760" y="470" width="100" height="27" rx="3" fill="#ec4899" opacity="0.3"/>
    <text x="810" y="482" fill="#f472b6">Sandbox Mode</text>
    <text x="810" y="494" fill="#f472b6" font-size="8">(2.0.24)</text>

    <rect x="1040" y="470" width="100" height="27" rx="3" fill="#ef4444" opacity="0.3"/>
    <text x="1090" y="482" fill="#f87171">/permissions</text>
    <text x="1090" y="494" fill="#f87171" font-size="8">(2.1.6)</text>

    <!-- Input/Output row -->
    <rect x="230" y="515" width="100" height="27" rx="3" fill="#f59e0b" opacity="0.3"/>
    <text x="280" y="527" fill="#fbbf24">Web Fetch</text>
    <text x="280" y="539" fill="#fbbf24" font-size="8">(0.2.53)</text>

    <rect x="370" y="515" width="100" height="27" rx="3" fill="#10b981" opacity="0.3"/>
    <text x="420" y="527" fill="#34d399">Web Search</text>
    <text x="420" y="539" fill="#34d399" font-size="8">(0.2.105)</text>

    <rect x="650" y="515" width="100" height="27" rx="3" fill="#8b5cf6" opacity="0.3"/>
    <text x="700" y="527" fill="#a78bfa">Image Paste</text>
    <text x="700" y="539" fill="#a78bfa" font-size="8">(0.2.59)</text>

    <rect x="1180" y="515" width="70" height="27" rx="3" fill="#ef4444" opacity="0.3"/>
    <text x="1215" y="527" fill="#f87171">Output Styles</text>

    <!-- Automation row -->
    <rect x="650" y="560" width="100" height="27" rx="3" fill="#8b5cf6" opacity="0.3"/>
    <text x="700" y="572" fill="#a78bfa">Todo List</text>
    <text x="700" y="584" fill="#a78bfa" font-size="8">(0.2.93)</text>

    <rect x="760" y="560" width="100" height="27" rx="3" fill="#ec4899" opacity="0.3"/>
    <text x="810" y="572" fill="#f472b6">Background Tasks</text>
    <text x="810" y="584" fill="#f472b6" font-size="8">(1.0.71)</text>

    <rect x="1040" y="560" width="100" height="27" rx="3" fill="#ef4444" opacity="0.3"/>
    <text x="1090" y="572" fill="#f87171">Task System</text>
    <text x="1090" y="584" fill="#f87171" font-size="8">(2.1.16)</text>

    <!-- Context row -->
    <rect x="230" y="605" width="100" height="27" rx="3" fill="#f59e0b" opacity="0.3"/>
    <text x="280" y="617" fill="#fbbf24">CLAUDE.md</text>
    <text x="280" y="629" fill="#fbbf24" font-size="8">(0.2.54)</text>

    <rect x="900" y="605" width="100" height="27" rx="3" fill="#f97316" opacity="0.3"/>
    <text x="950" y="617" fill="#fb923c">/context cmd</text>
    <text x="950" y="629" fill="#fb923c" font-size="8">(1.0.86)</text>

    <rect x="1040" y="605" width="100" height="27" rx="3" fill="#ef4444" opacity="0.3"/>
    <text x="1090" y="617" fill="#f87171">Compact/Resume</text>

    <!-- Collaboration row -->
    <rect x="370" y="650" width="100" height="27" rx="3" fill="#10b981" opacity="0.3"/>
    <text x="420" y="662" fill="#34d399">SDK Release</text>
    <text x="420" y="674" fill="#34d399" font-size="8">(1.0.23)</text>

    <rect x="760" y="650" width="100" height="27" rx="3" fill="#ec4899" opacity="0.3"/>
    <text x="810" y="662" fill="#f472b6">/export command</text>
    <text x="810" y="674" fill="#f472b6" font-size="8">(1.0.44)</text>

    <rect x="1040" y="650" width="100" height="27" rx="3" fill="#ef4444" opacity="0.3"/>
    <text x="1090" y="662" fill="#f87171">/stats command</text>

  </g>

  <!-- Legend -->
  <g transform="translate(80, 710)">
    <rect x="0" y="0" width="1240" height="30" rx="6" fill="#1f2937" stroke="#374151" stroke-width="1"/>
    <text x="620" y="20" text-anchor="middle" fill="#9ca3af" font-size="10">
      📊 Timeline: Early Beta (2024 Q1) → Pre-GA (2024 Q2) → GA (2024 Q2) → 1.x Era (2024 Q3-Q4) → 2.0 (2024 Q4) → 2.1 (2025)
    </text>
  </g>

</svg>